<svg width="1024" height="1024" viewBox="0 0 1024 1024" fill="none" xmlns="http://www.w3.org/2000/svg">
<circle cx="512" cy="512" r="512" fill="black"/>
<path d="M348.316 183.221C354.851 183.011 361.782 183.115 368.35 183.186C416.299 183.696 464.539 182.402 512.454 183.372L512.532 347.874L676.812 347.928C676.246 402.801 677.432 458.096 676.819 513.061L512.428 512.909C513.45 566.278 512.797 623.385 512.536 676.959C566.038 676.635 623.429 676.11 676.706 676.987L676.911 840.877C675.076 842.6 620.701 841.828 611.542 841.824C578.482 841.99 545.421 841.982 512.361 841.798C505.689 835.511 498.783 828.463 492.381 821.864C445.123 773.148 395.328 726.194 348.32 677.299C347.703 658.787 348.167 637.76 348.176 619.09L348.247 512.399L512.5 512.5L512.532 347.874L348.327 348.068C347.709 327.032 348.167 304.003 348.169 282.84L348.316 183.221Z" fill="#01E9CC"/>
</svg>
